# xmcd
#
# Track frame offsets: 
#        150
#        24574
#        38255
#        72885
#        115631
#        152905
#        184859
#        212306
#
# Disc length: 3106 seconds
#
# Revision: 0
# Processed by: cddbd v1.5.1PL0 Copyright (c) Steve Scherf et al.
# Submitted via: ExactAudioCopy v0.95a5
#
DISCID=5a0c2008
DTITLE=Chuck Brown - The Best Of... [CD1]
DYEAR=1900
DGENRE=Funk
TTITLE0=We The People
TTITLE1=Blow Your Whistle
TTITLE2=Bustin' Loose
TTITLE3=Back It On Up (Sho' Ya Right)
TTITLE4=We Need Some Money
TTITLE5=Day-O
TTITLE6=Misty
TTITLE7=Fiesta
EXTD=
EXTT0=
EXTT1=
EXTT2=
EXTT3=
EXTT4=
EXTT5=
EXTT6=
EXTT7=
PLAYORDER=
